HIERARCHY
ROOT Hips
{
	OFFSET 55.124401 -49.899517 86.004890
	CHANNELS 6 Xposition Yposition Zposition Xrotation Yrotation Zrotation
	JOINT spine
	{
		OFFSET 0.000000 -0.367607 6.392601
		CHANNELS 3 Xrotation Yrotation Zrotation
		JOINT spine1
		{
			OFFSET 0.000000 0.000000 9.176109
			CHANNELS 3 Xrotation Yrotation Zrotation
			JOINT spine2
			{
				OFFSET 0.000000 -0.000004 8.792381
				CHANNELS 3 Xrotation Yrotation Zrotation
				JOINT Neck
				{
					OFFSET 0.000000 -1.076244 22.573700
					CHANNELS 3 Xrotation Yrotation Zrotation
					JOINT Head
					{
						OFFSET 0.000000 0.000000 6.820114
						CHANNELS 3 Xrotation Yrotation Zrotation
						End Site
						{
							OFFSET 0.000000 5.444267 16.508514
						}
					}
				}
				JOINT RightShoulder
				{
					OFFSET -3.702209 0.515507 9.495087
					CHANNELS 3 Xrotation Yrotation Zrotation
					JOINT RightArm
					{
						OFFSET 0.000000 -0.000004 12.453690
						CHANNELS 3 Xrotation Yrotation Zrotation
						JOINT RightArmRoll
						{
							OFFSET 0.000000 0.000000 6.286865
							CHANNELS 3 Xrotation Yrotation Zrotation
							JOINT RightForeArm
							{
								OFFSET 0.000000 -0.000004 18.311401
								CHANNELS 3 Xrotation Yrotation Zrotation
								JOINT RightForeArmRoll
								{
									OFFSET 0.000000 0.000000 7.054825
									CHANNELS 3 Xrotation Yrotation Zrotation
									JOINT RightHand
									{
										OFFSET 0.000000 -0.000004 14.157501
										CHANNELS 3 Xrotation Yrotation Zrotation
										End Site
										{
											OFFSET 0.000000 0.000000 0.100006
										}
									}
								}
							}
						}
					}
				}
				JOINT LeftShoulder
				{
					OFFSET 3.702209 0.515507 9.495087
					CHANNELS 3 Xrotation Yrotation Zrotation
					JOINT LeftArm
					{
						OFFSET 0.000000 -0.000004 12.453690
						CHANNELS 3 Xrotation Yrotation Zrotation
						JOINT LeftArmRoll
						{
							OFFSET 0.000000 0.000000 6.286865
							CHANNELS 3 Xrotation Yrotation Zrotation
							JOINT LeftForeArm
							{
								OFFSET 0.000000 -0.000004 18.311401
								CHANNELS 3 Xrotation Yrotation Zrotation
								JOINT LeftForeArmRoll
								{
									OFFSET 0.000000 0.000000 7.054825
									CHANNELS 3 Xrotation Yrotation Zrotation
									JOINT LeftHand
									{
										OFFSET 0.000000 -0.000004 14.157501
										CHANNELS 3 Xrotation Yrotation Zrotation
										End Site
										{
											OFFSET 0.000000 0.000000 0.100006
										}
									}
								}
							}
						}
					}
				}
			}
		}
	}
	JOINT RightUpLeg
	{
		OFFSET -5.666149 0.871609 -1.039032
		CHANNELS 3 Xrotation Yrotation Zrotation
		JOINT RightUpLegRoll
		{
			OFFSET 0.000000 0.000000 16.600502
			CHANNELS 3 Xrotation Yrotation Zrotation
			JOINT RightLeg
			{
				OFFSET 0.000000 0.000004 -20.557198
				CHANNELS 3 Xrotation Yrotation Zrotation
				JOINT RightLegRoll
				{
					OFFSET 0.000000 -0.000004 20.624397
					CHANNELS 3 Xrotation Yrotation Zrotation
					JOINT RightFoot
					{
						OFFSET 0.000000 -0.000004 17.166405
						CHANNELS 3 Xrotation Yrotation Zrotation
						JOINT RightToeBase
						{
							OFFSET 0.000000 -0.000004 14.350197
							CHANNELS 3 Xrotation Yrotation Zrotation
							End Site
							{
								OFFSET 0.006081 0.801060 6.949707
							}
						}
					}
				}
			}
		}
	}
	JOINT LeftUpLeg
	{
		OFFSET 5.666149 0.871609 -1.039032
		CHANNELS 3 Xrotation Yrotation Zrotation
		JOINT LeftUpLegRoll
		{
			OFFSET 0.000000 0.000000 16.600601
			CHANNELS 3 Xrotation Yrotation Zrotation
			JOINT LeftLeg
			{
				OFFSET 0.000000 -0.000004 20.557098
				CHANNELS 3 Xrotation Yrotation Zrotation
				JOINT LeftLegRoll
				{
					OFFSET 0.000000 -0.000004 20.815086
					CHANNELS 3 Xrotation Yrotation Zrotation
					JOINT LeftFoot
					{
						OFFSET 0.000000 -0.000004 16.975708
						CHANNELS 3 Xrotation Yrotation Zrotation
						JOINT LeftToeBase
						{
							OFFSET 0.000000 0.000000 14.350204
							CHANNELS 3 Xrotation Yrotation Zrotation
							End Site
							{
								OFFSET -0.027260 0.801056 6.949707
							}
						}
					}
				}
			}
		}
	}
}
MOTION
Frames: 11
Frame Time: 0.041667
52.694305 -37.248512 77.246590 15.650014 -0.082020 5.674148 -0.476826 0.742994 -0.286582 3.053025 1.476822 -0.576039 4.698307 1.469817 -0.593693 -4.426458 -4.840378 -1.951905 -1.201585 0.729071 -0.803714 3.662548 -59.030941 4.295931 127.472449 -52.429973 115.223474 -0.000000 -0.000001 -0.000006 24.745360 -17.757990 4.066228 0.000006 -0.000014 -2.999989 -5.000150 -7.998706 0.000080 1.019001 50.310251 -2.401289 135.852299 53.511961 -127.088551 -0.000000 0.000004 0.000004 22.808206 12.926912 -1.757479 0.000020 -0.000003 2.999982 -4.999605 7.998732 0.000023 -50.591638 -175.201865 0.122601 -179.999991 0.000005 -0.819003 129.521041 -3.310654 -3.121377 -0.000003 0.000003 0.965140 79.938143 6.901936 1.093326 25.464038 -7.347592 0.010294 -51.134935 178.205728 3.720784 -0.000023 -0.000004 -0.904005 -51.974451 -0.659982 0.745347 -0.000001 0.000001 -1.594640 79.449894 -6.529058 -2.457060 26.036777 7.346874 -0.839921 
52.690502 -37.347610 77.320396 15.528020 -0.090297 5.694999 -0.488095 0.741836 -0.283887 3.030443 1.474167 -0.569861 4.675717 1.467233 -0.587483 -4.304964 -4.821971 -1.956643 -1.211195 0.729324 -0.818304 3.598403 -59.051555 4.217965 127.466097 -52.485171 115.339219 -0.000000 -0.000001 -0.000007 24.530329 -17.773861 4.033977 0.000005 -0.000014 -2.999993 -5.000151 -7.998705 0.000077 1.003671 50.363875 -2.374530 135.868418 53.610684 -127.192944 0.000000 0.000003 0.000005 22.667631 12.929990 -1.746060 0.000019 -0.000003 2.999980 -4.999609 7.998730 0.000022 -50.274085 -175.200076 0.129872 -179.999991 0.000005 -0.820997 129.706440 -3.322955 -3.113886 -0.000005 0.000003 0.962135 79.947043 6.902677 1.089354 25.464040 -7.347591 0.010294 -50.824367 178.218377 3.731988 -0.000019 -0.000004 -0.905313 -51.785678 -0.671080 0.738688 -0.000002 0.000001 -1.590150 79.447278 -6.528656 -2.458779 26.037888 7.346876 -0.841396 
52.687004 -37.447716 77.398598 15.408022 -0.099070 5.716482 -0.499743 0.740802 -0.281175 3.007084 1.471901 -0.563688 4.652363 1.465049 -0.581284 -4.182715 -4.803303 -1.961951 -1.220466 0.728322 -0.833417 3.532826 -59.075078 4.137923 127.456808 -52.544854 115.448133 0.000000 -0.000000 -0.000005 24.323036 -17.790469 4.003172 0.000008 -0.000015 -2.999988 -5.000151 -7.998705 0.000078 0.990266 50.418202 -2.350076 135.884442 53.712891 -127.296312 -0.000000 0.000004 0.000005 22.532463 12.933599 -1.735290 0.000020 -0.000003 2.999978 -4.999607 7.998730 0.000016 -49.958859 -175.195800 0.137060 -179.999991 0.000005 -0.821995 129.892603 -3.335909 -3.107076 -0.000004 0.000003 0.959103 79.954925 6.903513 1.085448 25.464036 -7.347591 0.010294 -50.516882 178.232161 3.743650 -0.000022 -0.000004 -0.906639 -51.596711 -0.682431 0.731933 0.000001 0.000001 -1.585670 79.442839 -6.528331 -2.460401 26.039200 7.346875 -0.843154 
52.694004 -37.542217 77.467789 15.290333 -0.108361 5.738664 -0.511837 0.739899 -0.278427 2.982855 1.470077 -0.557496 4.628131 1.463295 -0.575070 -4.059837 -4.784271 -1.968022 -1.229128 0.725773 -0.849261 3.465468 -59.101907 4.055327 127.445415 -52.608347 115.551269 -0.000000 -0.000001 -0.000006 24.123759 -17.808298 3.974029 0.000008 -0.000014 -2.999990 -5.000149 -7.998704 0.000081 0.979293 50.473288 -2.328534 135.902624 53.817335 -127.401633 -0.000001 0.000004 0.000005 22.402507 12.937687 -1.725113 0.000020 -0.000003 2.999979 -4.999609 7.998731 0.000021 -49.645940 -175.189653 0.145314 -179.999991 0.000005 -0.823006 130.079532 -3.349527 -3.100942 -0.000002 0.000003 0.956047 79.961892 6.904446 1.081108 25.464038 -7.347592 0.010294 -50.212993 178.246436 3.756715 -0.000023 -0.000004 -0.907985 -51.407757 -0.694089 0.725037 -0.000002 0.000001 -1.581210 79.436548 -6.528069 -2.461838 26.040612 7.346879 -0.845230 
52.690205 -37.643410 77.546890 15.174932 -0.118436 5.761601 -0.524438 0.739167 -0.275679 2.957604 1.468762 -0.551319 4.602888 1.462062 -0.568878 -3.934993 -4.765082 -1.974644 -1.238347 0.722164 -0.865661 3.397218 -59.132137 3.971212 127.430566 -52.677291 115.646495 -0.000000 -0.000001 -0.000005 23.933674 -17.826751 3.946631 0.000006 -0.000014 -2.999988 -5.000148 -7.998706 0.000076 0.971566 50.529555 -2.310823 135.921229 53.926652 -127.505671 -0.000000 0.000004 0.000006 22.280683 12.942829 -1.715916 0.000019 -0.000003 2.999980 -4.999606 7.998731 0.000019 -49.335512 -175.180910 0.154384 -179.999991 0.000005 -0.824003 130.267212 -3.363822 -3.094477 -0.000004 0.000003 0.952964 79.967773 6.905571 1.076451 25.464038 -7.347592 0.010294 -49.912663 178.263156 3.769691 -0.000024 -0.000004 -0.909383 -51.218807 -0.706156 0.717969 -0.000002 0.000001 -1.576780 79.428229 -6.527953 -2.463208 26.042331 7.346871 -0.847656 
52.695099 -37.729424 77.616806 15.061537 -0.129465 5.785228 -0.537532 0.738621 -0.272968 2.931374 1.467998 -0.545204 4.576651 1.461358 -0.562754 -3.807116 -4.745982 -1.981445 -1.249299 0.718189 -0.882254 3.329056 -59.165120 3.886787 127.414105 -52.751665 115.736367 0.000000 -0.000000 -0.000004 23.753412 -17.845044 3.920935 0.000006 -0.000014 -2.999989 -5.000149 -7.998706 0.000076 0.967133 50.587294 -2.296931 135.941583 54.040327 -127.609421 -0.000000 0.000004 0.000003 22.168875 12.949257 -1.707785 0.000019 -0.000002 2.999980 -4.999605 7.998730 0.000021 -49.027279 -175.169449 0.164209 -179.999991 0.000005 -0.825000 130.455657 -3.378785 -3.088676 -0.000004 0.000003 0.949846 79.972554 6.906852 1.071373 25.464036 -7.347591 0.010294 -49.615351 178.282308 3.783054 -0.000023 -0.000004 -0.910850 -51.029757 -0.718677 0.710709 -0.000001 0.000001 -1.572340 79.418291 -6.527897 -2.464375 26.044153 7.346874 -0.850314 
52.701702 -37.833820 77.682892 14.950046 -0.141331 5.809437 -0.551055 0.738242 -0.270294 2.904285 1.467704 -0.539156 4.549563 1.461134 -0.556701 -3.676635 -4.726975 -1.988347 -1.261726 0.713867 -0.898956 3.260870 -59.200576 3.801980 127.396647 -52.830574 115.821949 0.000000 -0.000000 -0.000007 23.582654 -17.863158 3.896926 0.000005 -0.000016 -2.999988 -5.000148 -7.998705 0.000075 0.965322 50.646211 -2.286069 135.962442 54.158954 -127.711205 -0.000000 0.000005 0.000004 22.065932 12.956900 -1.700595 0.000018 -0.000003 2.999978 -4.999606 7.998730 0.000020 -48.721071 -175.155926 0.174966 -179.999991 0.000005 -0.825997 130.644908 -3.395095 -3.084280 -0.000005 0.000003 0.946690 79.976126 6.908336 1.065886 25.464040 -7.347592 0.010294 -49.320840 178.302635 3.797848 -0.000026 -0.000004 -0.912370 -50.840329 -0.731564 0.703331 -0.000001 0.000000 -1.567881 79.406680 -6.527970 -2.465548 26.046068 7.346876 -0.853179 
52.710102 -37.917324 77.756096 14.840150 -0.153913 5.834141 -0.564938 0.738006 -0.267652 2.876485 1.467819 -0.533174 4.521772 1.461320 -0.550721 -3.544014 -4.708080 -1.995300 -1.275377 0.709220 -0.915684 3.192532 -59.238203 3.716696 127.378001 -52.913943 115.903119 -0.000001 -0.000000 -0.000007 23.420633 -17.880933 3.874355 0.000005 -0.000013 -2.999989 -5.000151 -7.998703 0.000078 0.965442 50.706112 -2.277453 135.983985 54.281460 -127.811759 -0.000001 0.000004 0.000005 21.971011 12.965478 -1.694246 0.000019 -0.000002 2.999982 -4.999607 7.998730 0.000021 -48.416704 -175.140216 0.186120 -179.999991 0.000005 -0.826995 130.835115 -3.412116 -3.079530 -0.000006 0.000003 0.943497 79.978653 6.909888 1.060063 25.464038 -7.347591 0.010294 -49.028689 178.324765 3.812878 -0.000022 -0.000004 -0.913928 -50.650589 -0.744752 0.695862 -0.000000 0.000001 -1.563381 79.393654 -6.528048 -2.466605 26.047992 7.346882 -0.856184 
52.688305 -38.032410 77.771797 14.731863 -0.167090 5.859254 -0.579102 0.737890 -0.265044 2.848115 1.468275 -0.527261 4.493408 1.461845 -0.544814 -3.409688 -4.689281 -2.002227 -1.289997 0.704264 -0.932358 3.123911 -59.277689 3.630823 127.358166 -53.001776 115.980055 -0.000001 -0.000001 -0.000008 23.267038 -17.898446 3.853229 0.000008 -0.000013 -2.999989 -5.000151 -7.998706 0.000073 0.966811 50.766597 -2.270277 136.006893 54.406985 -127.911890 -0.000001 0.000003 0.000004 21.882770 12.975027 -1.688626 0.000018 -0.000003 2.999979 -4.999605 7.998730 0.000021 -48.113731 -175.123578 0.198648 -179.999991 0.000005 -0.826994 131.026442 -3.429213 -3.074641 -0.000002 0.000003 0.940262 79.979951 6.911608 1.054040 25.464038 -7.347591 0.010294 -48.738632 178.348028 3.828456 -0.000024 -0.000004 -0.915510 -50.460164 -0.758159 0.688367 0.000000 0.000001 -1.558850 79.379181 -6.528257 -2.467555 26.050111 7.346876 -0.859316 
52.698704 -38.121712 77.848602 14.624772 -0.180745 5.884684 -0.593486 0.737875 -0.262466 2.819319 1.469001 -0.521418 4.464599 1.462650 -0.538982 -3.274117 -4.670598 -2.009070 -1.305305 0.699019 -0.948895 3.054880 -59.318561 3.544279 127.337662 -53.093181 116.053684 -0.000000 0.000000 -0.000007 23.120989 -17.915444 3.833237 0.000006 -0.000013 -2.999989 -5.000154 -7.998704 0.000079 0.968745 50.827587 -2.263746 136.031291 54.534484 -128.012075 -0.000000 0.000003 0.000005 21.800359 12.985249 -1.683601 0.000019 -0.000002 2.999978 -4.999606 7.998730 0.000020 -47.812116 -175.105341 0.211244 -179.999991 0.000005 -0.828006 131.218726 -3.447019 -3.070378 -0.000004 0.000003 0.936985 79.980101 6.913417 1.047889 25.464036 -7.347591 0.010294 -48.450268 178.372453 3.844143 -0.000025 -0.000004 -0.917102 -50.268946 -0.771705 0.680871 -0.000001 0.000001 -1.554250 79.363438 -6.528481 -2.468482 26.052134 7.346877 -0.862487 
52.714905 -38.206612 77.964890 14.518691 -0.194754 5.910334 -0.608024 0.737937 -0.259917 2.790210 1.469956 -0.515650 4.435504 1.463665 -0.533223 -3.137726 -4.652017 -2.015764 -1.321068 0.693504 -0.965212 2.985328 -59.360594 3.456972 127.317458 -53.187479 116.125565 0.000000 0.000000 -0.000007 22.982188 -17.931991 3.814392 0.000006 -0.000015 -2.999990 -5.000148 -7.998706 0.000074 0.970544 50.888779 -2.257038 136.055852 54.664453 -128.110798 -0.000000 0.000003 0.000004 21.722631 12.996072 -1.679083 0.000021 -0.000002 2.999979 -4.999606 7.998732 0.000020 -47.511602 -175.086094 0.224168 -179.999991 0.000005 -0.829003 131.412102 -3.464895 -3.064962 -0.000003 0.000003 0.933663 79.979145 6.915233 1.041608 25.464040 -7.347591 0.010294 -48.163116 178.397315 3.860235 -0.000026 -0.000004 -0.918688 -50.076922 -0.785307 0.673445 -0.000001 0.000001 -1.549590 79.346451 -6.528800 -2.469291 26.054148 7.346876 -0.865675 
